<svg width="45" height="23" viewBox="0 0 45 23" fill="none" xmlns="http://www.w3.org/2000/svg">
<path d="M44.2681 20.6998C44.2151 20.5954 44.1657 20.5089 44.1198 20.4395C43.3608 19.1896 41.9102 17.6554 39.7691 15.8365L39.7238 15.7949L39.7012 15.7744L39.6783 15.7535H39.6553C38.6835 14.9065 38.0682 14.3371 37.8105 14.0455C37.3389 13.4901 37.2333 12.9279 37.491 12.3583C37.6731 11.9279 38.357 11.019 39.5411 9.63035C40.164 8.8944 40.6573 8.30457 41.0216 7.86019C43.649 4.66665 44.788 2.62594 44.4386 1.73725L44.3029 1.52958C44.2117 1.40455 43.9763 1.29017 43.5971 1.18586C43.217 1.08177 42.7312 1.06455 42.1388 1.13393L35.5787 1.17536C35.4724 1.14093 35.3207 1.14414 35.123 1.18586C34.9255 1.22759 34.8267 1.24852 34.8267 1.24852L34.7125 1.30068L34.6219 1.36334C34.546 1.40477 34.4624 1.47764 34.3712 1.58181C34.2805 1.68561 34.2046 1.80743 34.144 1.94624C33.4298 3.62624 32.6177 5.18821 31.7064 6.63209C31.1445 7.49306 30.6284 8.23921 30.1571 8.87099C29.6865 9.50255 29.2916 9.96786 28.973 10.2661C28.6539 10.5647 28.3658 10.8039 28.1072 10.9846C27.8489 11.1653 27.6518 11.2417 27.5153 11.2138C27.3784 11.1858 27.2496 11.1581 27.1276 11.1304C26.9151 11.0054 26.7442 10.8353 26.6154 10.6201C26.486 10.4049 26.3988 10.1341 26.3533 9.80782C26.308 9.48132 26.2812 9.20048 26.2735 8.96436C26.2664 8.72853 26.2697 8.39495 26.2851 7.96457C26.3009 7.53398 26.308 7.24264 26.308 7.08989C26.308 6.5622 26.3192 5.98951 26.3418 5.37167C26.3648 4.75382 26.3834 4.26429 26.3989 3.90365C26.4144 3.54264 26.4216 3.1607 26.4216 2.75805C26.4216 2.35539 26.3948 2.03961 26.3418 1.81042C26.2895 1.58152 26.2091 1.35933 26.1033 1.14392C25.9967 0.92873 25.8408 0.76227 25.6363 0.644099C25.4313 0.526074 25.1765 0.432412 24.8732 0.362823C24.0683 0.196289 23.0433 0.106202 21.7978 0.0921967C18.9734 0.0644776 17.1585 0.23123 16.3537 0.592235C16.0348 0.744763 15.7462 0.953167 15.4882 1.21679C15.2148 1.52236 15.1766 1.68911 15.374 1.71654C16.2853 1.84135 16.9304 2.13991 17.3101 2.61194L17.447 2.86207C17.5534 3.04253 17.6597 3.36203 17.766 3.82013C17.8722 4.27822 17.9407 4.78497 17.9709 5.34008C18.0467 6.3538 18.0467 7.22155 17.9709 7.94342C17.8949 8.66558 17.8231 9.22776 17.7545 9.63042C17.686 10.0331 17.5836 10.3594 17.447 10.6092C17.3101 10.8591 17.2191 11.0119 17.1735 11.0673C17.1279 11.1227 17.0899 11.1577 17.0598 11.1714C16.8624 11.2405 16.6571 11.2758 16.4446 11.2758C16.2319 11.2758 15.9738 11.1785 15.6702 10.984C15.3666 10.7895 15.0515 10.5224 14.725 10.1822C14.3984 9.84189 14.0301 9.36636 13.62 8.75552C13.2101 8.14467 12.7849 7.42274 12.3445 6.5897L11.9801 5.98557C11.7523 5.59692 11.4412 5.03101 11.0463 4.28836C10.6512 3.54541 10.302 2.82676 9.99844 2.13254C9.87709 1.84098 9.69479 1.61901 9.45184 1.46626L9.33783 1.4036C9.26204 1.34816 9.14037 1.2893 8.97346 1.22656C8.80631 1.16391 8.63191 1.11897 8.44952 1.09132L2.20813 1.13276C1.57034 1.13276 1.13759 1.26486 0.909727 1.5287L0.818534 1.65351C0.772978 1.72303 0.75 1.83405 0.75 1.98687C0.75 2.13962 0.795556 2.32709 0.886749 2.54906C1.79788 4.5069 2.78871 6.39509 3.85925 8.2139C4.92979 10.0327 5.86006 11.4978 6.64952 12.6079C7.43914 13.7188 8.244 14.7672 9.0641 15.7527C9.88419 16.7385 10.427 17.3703 10.6926 17.6479C10.9586 17.9259 11.1674 18.1338 11.3193 18.2727L11.8888 18.7724C12.2533 19.1057 12.7885 19.5048 13.4946 19.9699C14.201 20.4352 14.9829 20.8933 15.8409 21.3449C16.6991 21.7958 17.6974 22.1637 18.8365 22.4482C19.9754 22.7331 21.0839 22.8474 22.1622 22.7923H24.7818C25.3131 22.7503 25.7156 22.5976 25.9892 22.3339L26.0798 22.2296C26.1407 22.1467 26.1978 22.0179 26.2505 21.8447C26.3037 21.6712 26.3302 21.48 26.3302 21.272C26.3147 20.6751 26.3644 20.1371 26.478 19.6582C26.5915 19.1794 26.7209 18.8184 26.8657 18.5752C27.0103 18.3323 27.1735 18.1273 27.3552 17.9612C27.5373 17.7946 27.667 17.6938 27.7431 17.659C27.8188 17.6241 27.8792 17.6004 27.9247 17.5862C28.2892 17.4751 28.7181 17.5827 29.2121 17.9092C29.7057 18.2355 30.1687 18.6384 30.6018 19.1172C31.0346 19.5965 31.5546 20.1341 32.1619 20.7311C32.7697 21.3282 33.301 21.772 33.7564 22.064L34.2118 22.314C34.516 22.4807 34.9108 22.6335 35.3969 22.7723C35.882 22.911 36.3071 22.9457 36.6721 22.8764L42.5033 22.7932C43.08 22.7932 43.5288 22.7059 43.8471 22.5326C44.1661 22.3591 44.3556 22.1679 44.4167 21.96C44.4777 21.7518 44.4809 21.5156 44.4283 21.2515C44.3743 20.9881 44.321 20.8039 44.2681 20.6998Z" fill="white"/>
</svg>
